# xmcd CD database file
#
# Track frame offsets:
#	150
#	12327
#	30468
#	48226
#	69238
#	81749
#	104658
#	120347
#	136291
#	154981
#	178313
#	199325
#	219549
#	231953
#	243778
#	254532
#	275231
#	297782
#	311555
#	337281
#
# Disc length: 4682 seconds
#
# Revision: 0
# Processed by: cddbd v1.5PL3 Copyright (c) Steve Scherf et al.
# Submitted via: CDex 1.51
#
DISCID=37124814
DTITLE=New Age Flamenco - 2003
DYEAR=2003
DGENRE=New Age
TTITLE0=Gambiya
TTITLE1=Black Orfey
TTITLE2=Adagio
TTITLE3=Paco
TTITLE4=Farhado
TTITLE5=El Banditto
TTITLE6=Bulerius
TTITLE7=Flore De Luna
TTITLE8=Meditar
TTITLE9=Trabzone
TTITLE10=Flamenco Gm:2
TTITLE11=Han/Beguin
TTITLE12=Bahman
TTITLE13=Havana
TTITLE14=El Grasso
TTITLE15=Ricado Bossa
TTITLE16=Pablo
TTITLE17=Arabeska
TTITLE18=Concherto
TTITLE19=Aziza
EXTD=YEAR: 2003
EXTT0=
EXTT1=
EXTT2=
EXTT3=
EXTT4=
EXTT5=
EXTT6=
EXTT7=
EXTT8=
EXTT9=
EXTT10=
EXTT11=
EXTT12=
EXTT13=
EXTT14=
EXTT15=
EXTT16=
EXTT17=
EXTT18=
EXTT19=
PLAYORDER=
